<svg width="147" height="51" viewBox="0 0 147 51" fill="none" xmlns="http://www.w3.org/2000/svg">
<path d="M36.1085 4.41406C35.9835 5.05469 35.6788 5.6875 35.1944 6.3125C34.7257 6.92188 34.1944 7.44531 33.6007 7.88281C33.5225 7.96094 33.3663 8.04688 33.1319 8.14062C32.9132 8.23438 32.671 8.33594 32.4053 8.44531C32.1553 8.53906 31.9053 8.625 31.6553 8.70312C31.4053 8.78125 31.21 8.82812 31.0694 8.84375C30.9444 8.875 30.8428 8.86719 30.7647 8.82031C30.7022 8.77344 30.6397 8.71875 30.5772 8.65625C30.5147 8.59375 30.4366 8.53906 30.3428 8.49219C30.2647 8.42969 30.1475 8.39844 29.9913 8.39844C29.8038 8.39844 29.6866 8.35937 29.6397 8.28125C29.6085 8.1875 29.6319 8.02344 29.71 7.78906C29.7413 7.71094 29.796 7.60156 29.8741 7.46094C29.9522 7.32031 30.0772 7.14062 30.2491 6.92188C30.3741 6.78125 30.4757 6.625 30.5538 6.45312C30.6475 6.28125 30.6632 6.125 30.6007 5.98438C30.5538 5.82812 30.4053 5.70312 30.1553 5.60938C29.9053 5.51562 29.5147 5.46875 28.9835 5.46875C28.4366 5.46875 27.7335 5.53906 26.8741 5.67969C25.9366 5.80469 24.96 6.03906 23.9444 6.38281C22.9444 6.72656 21.9678 7.125 21.0147 7.57812C20.0772 8.03125 19.21 8.51562 18.4132 9.03125C17.6163 9.54688 16.96 10.0547 16.4444 10.5547C15.9444 11.0391 15.6241 11.5 15.4835 11.9375C15.3428 12.3594 15.46 12.7031 15.835 12.9688C16.1632 13.2031 16.6632 13.4062 17.335 13.5781C18.0069 13.7344 18.7803 13.8828 19.6553 14.0234C20.5303 14.1484 21.4678 14.2891 22.4678 14.4453C23.4678 14.5859 24.46 14.7578 25.4444 14.9609C26.4444 15.1641 27.3897 15.4141 28.2803 15.7109C29.1866 16.0078 29.9835 16.375 30.671 16.8125C31.1553 17.1406 31.5616 17.4531 31.8897 17.75C32.2178 18.0469 32.4835 18.3438 32.6866 18.6406C32.8897 18.9219 33.0538 19.2031 33.1788 19.4844C33.3038 19.75 33.4132 20.0234 33.5069 20.3047C33.5694 20.4766 33.6788 20.6719 33.835 20.8906C34.0069 21.0938 34.1866 21.3438 34.3741 21.6406C34.5616 21.9375 34.7335 22.2812 34.8897 22.6719C35.046 23.0469 35.1475 23.4922 35.1944 24.0078C35.2569 25.0391 35.046 26.0156 34.5616 26.9375C34.0928 27.8594 33.4757 28.7109 32.71 29.4922C31.96 30.2734 31.1241 30.9766 30.2022 31.6016C29.2803 32.2109 28.3975 32.7188 27.5538 33.125C26.8194 33.4844 26.0382 33.8203 25.21 34.1328C24.3819 34.4453 23.5303 34.7188 22.6553 34.9531C21.7803 35.1719 20.8897 35.3438 19.9835 35.4688C19.0928 35.6094 18.21 35.6797 17.335 35.6797C15.8819 35.6797 14.5147 35.4766 13.2335 35.0703C11.9678 34.6797 10.8663 34.0156 9.92878 33.0781C9.47566 32.5938 9.14753 32.1094 8.94441 31.625C8.74128 31.125 8.63972 30.6328 8.63972 30.1484C8.63972 29.5703 8.75691 29.0078 8.99128 28.4609C9.22566 27.9141 9.53035 27.3984 9.90535 26.9141C10.2803 26.4297 10.6944 26 11.1475 25.625C11.6007 25.2344 12.046 24.9219 12.4835 24.6875C13.0928 24.3438 13.7257 24.0156 14.3819 23.7031C15.0538 23.375 15.7257 23.0859 16.3975 22.8359C17.0694 22.5703 17.7413 22.3516 18.4132 22.1797C19.085 22.0078 19.7335 21.8984 20.3585 21.8516C20.6241 21.8203 20.96 21.7891 21.3663 21.7578C21.7725 21.7266 22.1553 21.7109 22.5147 21.7109C22.7491 21.7109 22.9444 21.7734 23.1007 21.8984C23.2569 22.0234 23.3194 22.1328 23.2882 22.2266C23.21 22.3984 23.0694 22.4844 22.8663 22.4844C22.6788 22.4844 22.4522 22.5156 22.1866 22.5781C21.8897 22.6562 21.5928 22.7109 21.296 22.7422C20.9991 22.7734 20.7335 22.8281 20.4991 22.9062C18.7178 23.3125 17.21 23.8281 15.9757 24.4531C14.7569 25.0781 13.7803 25.7109 13.046 26.3516C12.3272 26.9922 11.835 27.6016 11.5694 28.1797C11.3038 28.7422 11.2257 29.1719 11.335 29.4688C11.4913 29.8906 11.7803 30.2188 12.2022 30.4531C12.6241 30.6875 13.1007 30.8594 13.6319 30.9688C14.1632 31.0625 14.7022 31.1172 15.2491 31.1328C15.796 31.1484 16.2647 31.1406 16.6553 31.1094C17.5616 31.0625 18.5694 30.9297 19.6788 30.7109C20.8038 30.4922 21.9366 30.2031 23.0772 29.8438C24.2335 29.4844 25.3585 29.0625 26.4522 28.5781C27.546 28.0781 28.5147 27.5391 29.3585 26.9609C30.2022 26.3672 30.8819 25.7344 31.3975 25.0625C31.9132 24.375 32.171 23.6562 32.171 22.9062C32.171 22.6562 32.1319 22.4141 32.0538 22.1797C31.9913 21.9297 31.8975 21.6719 31.7725 21.4062C31.5382 20.9531 31.0928 20.5703 30.4366 20.2578C29.7803 19.9297 28.9913 19.6562 28.0694 19.4375C27.1632 19.2031 26.171 19 25.0928 18.8281C24.0303 18.6406 22.9757 18.4531 21.9288 18.2656C20.8975 18.0781 19.9132 17.8672 18.9757 17.6328C18.0382 17.3984 17.2491 17.1094 16.6085 16.7656C15.8897 16.375 15.3585 15.9922 15.0147 15.6172C14.6866 15.2266 14.4991 14.7422 14.4522 14.1641C14.4366 14.1016 14.3897 13.9922 14.3116 13.8359C14.2335 13.6797 14.1397 13.5156 14.0303 13.3438C13.9366 13.1719 13.8428 13.0078 13.7491 12.8516C13.6553 12.6953 13.585 12.5703 13.5382 12.4766C13.2882 12.0234 13.1632 11.5312 13.1632 11C13.1632 10.4063 13.296 9.79688 13.5616 9.17188C13.8428 8.54687 14.1866 8.00781 14.5928 7.55469C15.3428 6.69531 16.3272 5.89844 17.546 5.16406C18.7803 4.42969 20.1241 3.78906 21.5772 3.24219C23.0303 2.69531 24.5225 2.25781 26.0538 1.92969C27.6007 1.58594 29.0616 1.39062 30.4366 1.34375C30.9991 1.32812 31.6319 1.36719 32.335 1.46094C33.0382 1.55469 33.6866 1.72656 34.2803 1.97656C34.8897 2.21094 35.3741 2.53125 35.7335 2.9375C36.0928 3.32813 36.2178 3.82031 36.1085 4.41406ZM55.3529 25.1094C55.3529 26.75 55.1107 28.2266 54.6263 29.5391C54.1576 30.8516 53.5092 31.9688 52.681 32.8906C51.8685 33.8125 50.9232 34.5234 49.8451 35.0234C48.767 35.5234 47.6263 35.7734 46.4232 35.7734C45.9232 35.7734 45.3763 35.7109 44.7826 35.5859C44.1888 35.4766 43.5951 35.2891 43.0013 35.0234C42.4076 34.7578 41.8295 34.4062 41.267 33.9688C40.7045 33.5312 40.2045 32.9922 39.767 32.3516C39.3295 31.7109 38.9779 30.9609 38.7123 30.1016C38.4623 29.2422 38.3451 28.25 38.3607 27.125C38.3607 25.8438 38.517 24.6797 38.8295 23.6328C39.142 22.5703 39.5404 21.625 40.0248 20.7969C40.5248 19.9531 41.0873 19.2266 41.7123 18.6172C42.3373 18.0078 42.9623 17.5 43.5873 17.0938C44.2123 16.6719 44.8138 16.3594 45.392 16.1562C45.9701 15.9531 46.4701 15.8359 46.892 15.8047C47.1107 15.7891 47.2045 15.8125 47.1732 15.875C47.1576 15.9375 47.1029 16.0078 47.0092 16.0859C46.9154 16.1641 46.8295 16.2422 46.7513 16.3203C46.6888 16.3984 46.7201 16.4453 46.8451 16.4609C46.9545 16.4922 47.0404 16.5234 47.1029 16.5547C47.181 16.5859 47.2592 16.625 47.3373 16.6719L47.5248 16.4609C47.6342 16.3828 47.7357 16.3438 47.8295 16.3438C47.9388 16.3438 48.0326 16.3594 48.1107 16.3906C48.1888 16.4062 48.2513 16.4141 48.2982 16.4141C48.3451 16.4141 48.3763 16.3672 48.392 16.2734C48.4232 16.1016 48.4779 16.0078 48.556 15.9922C48.6498 15.9609 48.8529 15.9453 49.1654 15.9453C49.3529 15.9453 49.6342 16 50.0092 16.1094C50.3998 16.2188 50.8217 16.4062 51.2748 16.6719C51.7435 16.9375 52.2123 17.2969 52.681 17.75C53.1654 18.1875 53.6029 18.75 53.9935 19.4375C54.3998 20.1094 54.7279 20.9141 54.9779 21.8516C55.2279 22.7891 55.3529 23.875 55.3529 25.1094ZM46.892 18.2422C46.3451 18.5703 45.806 19.0156 45.2748 19.5781C44.7435 20.1406 44.2592 20.7891 43.8217 21.5234C43.3998 22.2578 43.056 23.0781 42.7904 23.9844C42.5248 24.8906 42.392 25.8438 42.392 26.8438C42.392 27.9219 42.4857 28.8984 42.6732 29.7734C42.8763 30.6484 43.1654 31.3984 43.5404 32.0234C43.9154 32.6328 44.3685 33.1094 44.8998 33.4531C45.4467 33.7812 46.0638 33.9453 46.7513 33.9453C47.3607 33.9453 47.9623 33.7734 48.556 33.4297C49.1654 33.0859 49.7045 32.5703 50.1732 31.8828C50.642 31.1953 51.017 30.3438 51.2982 29.3281C51.5951 28.3125 51.7435 27.1328 51.7435 25.7891C51.7435 24.4297 51.5638 23.2891 51.2045 22.3672C50.8451 21.4453 50.4388 20.7031 49.9857 20.1406C49.5482 19.5625 49.1263 19.1562 48.7201 18.9219C48.3138 18.6719 48.0638 18.5469 47.9701 18.5469C47.7513 18.5469 47.5795 18.5469 47.4545 18.5469C47.3451 18.5469 47.1576 18.4453 46.892 18.2422ZM73.3083 34.8594C73.3083 35 73.1911 35.1719 72.9567 35.375C72.7223 35.5781 72.4255 35.6797 72.0661 35.6797C71.9567 35.6797 71.7536 35.625 71.4567 35.5156C71.1755 35.4062 70.8786 35.2422 70.5661 35.0234C70.2536 34.8203 69.9723 34.5703 69.7223 34.2734C69.4723 33.9609 69.3395 33.6094 69.3239 33.2188C69.2927 33.0469 69.277 32.8125 69.277 32.5156C69.277 32.2031 69.277 31.8438 69.277 31.4375C69.277 30.8125 69.277 30.1172 69.277 29.3516C69.277 28.5859 69.2927 27.8125 69.3239 27.0312C69.2145 27.5938 69.0817 28.1797 68.9255 28.7891C68.7692 29.3828 68.5739 29.9766 68.3395 30.5703C68.1052 31.1641 67.8317 31.75 67.5192 32.3281C67.2067 32.9062 66.8473 33.4609 66.4411 33.9922C66.2223 34.2734 65.988 34.5156 65.738 34.7188C65.5036 34.9062 65.2692 35.0625 65.0348 35.1875C64.8005 35.3281 64.5817 35.4297 64.3786 35.4922C64.1755 35.5547 64.0192 35.5859 63.9098 35.5859C63.8473 35.5859 63.6989 35.5156 63.4645 35.375C63.2458 35.25 62.9802 35.0859 62.6677 34.8828C62.3708 34.6641 62.0505 34.4297 61.7067 34.1797C61.363 33.9141 61.0348 33.6562 60.7223 33.4062C60.4098 33.1406 60.1286 32.8984 59.8786 32.6797C59.6286 32.4453 59.4489 32.2578 59.3395 32.1172C59.2302 31.9609 59.1286 31.6953 59.0348 31.3203C58.9567 30.9453 58.8864 30.4844 58.8239 29.9375C58.7614 29.3906 58.7067 28.7734 58.6598 28.0859C58.6286 27.3984 58.613 26.6641 58.613 25.8828C58.613 25.4609 58.6208 24.9141 58.6364 24.2422C58.652 23.5703 58.6833 22.8516 58.7302 22.0859C58.777 21.3047 58.8317 20.5234 58.8942 19.7422C58.9723 18.9453 59.0583 18.2344 59.152 17.6094C59.2614 16.9688 59.3864 16.4531 59.527 16.0625C59.6677 15.6562 59.8317 15.4531 60.0192 15.4531C60.1442 15.4531 60.363 15.4922 60.6755 15.5703C60.988 15.6328 61.3083 15.6641 61.6364 15.6641C62.1208 15.6641 62.4567 15.625 62.6442 15.5469C62.8473 15.4531 62.9958 15.4062 63.0895 15.4062C63.2458 15.4062 63.3239 15.5391 63.3239 15.8047C63.3239 15.8828 63.3239 15.9609 63.3239 16.0391C63.3239 16.1016 63.3083 16.1797 63.277 16.2734C63.2614 16.3672 63.2223 16.6094 63.1598 17C63.113 17.3906 63.0505 17.8906 62.9723 18.5C62.8942 19.1094 62.8161 19.7969 62.738 20.5625C62.6598 21.3125 62.5817 22.1016 62.5036 22.9297C62.4411 23.7578 62.3864 24.5938 62.3395 25.4375C62.2927 26.2812 62.2692 27.0859 62.2692 27.8516C62.2692 28.3672 62.277 28.8828 62.2927 29.3984C62.3239 29.9141 62.3708 30.3828 62.4333 30.8047C62.4958 31.2266 62.5817 31.5703 62.6911 31.8359C62.8005 32.0859 62.9333 32.2109 63.0895 32.2109C63.2302 32.2109 63.4255 32.1484 63.6755 32.0234C63.9411 31.8828 64.2458 31.6094 64.5895 31.2031C64.9489 30.7969 65.3395 30.2188 65.7614 29.4688C66.1833 28.7188 66.6364 27.7266 67.1208 26.4922C67.6208 25.2422 68.1364 23.7188 68.6677 21.9219C69.2145 20.1094 69.7692 17.9531 70.3317 15.4531C70.3317 15.4062 70.3552 15.375 70.402 15.3594C70.4645 15.3281 70.5348 15.3125 70.613 15.3125C70.8161 15.3125 71.0739 15.3359 71.3864 15.3828C71.6989 15.4141 71.9958 15.4688 72.277 15.5469C72.5739 15.6094 72.8239 15.6875 73.027 15.7812C73.2458 15.875 73.3552 15.9766 73.3552 16.0859C73.3552 16.7891 73.3239 17.5547 73.2614 18.3828C73.1989 19.2109 73.1286 20.0703 73.0505 20.9609C72.9723 21.8359 72.902 22.7344 72.8395 23.6562C72.777 24.5781 72.7458 25.4922 72.7458 26.3984C72.7458 28.0234 72.7927 29.5781 72.8864 31.0625C72.9958 32.5312 73.1364 33.7969 73.3083 34.8594ZM91.873 33.9922C91.873 34.1797 91.8027 34.3906 91.6621 34.625C91.5371 34.8438 91.3496 34.9531 91.0996 34.9531C90.959 34.9531 90.8496 34.9141 90.7715 34.8359C90.6933 34.7578 90.6152 34.7188 90.5371 34.7188C90.4277 34.7188 90.3183 34.7578 90.209 34.8359C90.1152 34.9141 89.9512 34.9531 89.7168 34.9531C89.4043 34.9531 89.1308 34.8438 88.8965 34.625C88.6777 34.3906 88.498 34.1016 88.3574 33.7578C88.2168 33.3984 88.1074 33.0156 88.0293 32.6094C87.9668 32.1875 87.9355 31.7969 87.9355 31.4375C87.9355 30.7344 87.959 29.9375 88.0058 29.0469C88.0683 28.1406 88.1308 27.2188 88.1933 26.2812C88.2715 25.3281 88.334 24.3828 88.3808 23.4453C88.4433 22.5078 88.4746 21.6406 88.4746 20.8438C88.4746 19.7812 88.4043 18.9531 88.2637 18.3594C88.123 17.7656 87.873 17.4688 87.5137 17.4688C87.1699 17.5156 86.8183 17.8125 86.459 18.3594C86.0996 18.9062 85.7324 19.6094 85.3574 20.4688C84.9824 21.3125 84.6152 22.2734 84.2558 23.3516C83.8965 24.4141 83.5449 25.5078 83.2012 26.6328C82.873 27.7422 82.5605 28.8281 82.2637 29.8906C81.9668 30.9375 81.7012 31.875 81.4668 32.7031C81.2324 33.5312 81.0293 34.2031 80.8574 34.7188C80.6855 35.2188 80.5683 35.4688 80.5058 35.4688C80.3808 35.4688 80.2871 35.4375 80.2246 35.375C80.1621 35.3281 80.0996 35.2734 80.0371 35.2109C79.9902 35.1484 79.9277 35.0859 79.8496 35.0234C79.7715 34.9766 79.6543 34.9531 79.498 34.9531C79.3574 34.9531 79.2637 34.9688 79.2168 35C79.1699 35.0312 79.1152 35.0703 79.0527 35.1172C78.9902 35.1641 78.9121 35.2031 78.8183 35.2344C78.7246 35.2656 78.5605 35.2812 78.3262 35.2812C78.0449 35.2812 77.7637 35.2109 77.4824 35.0703C77.2168 34.9297 77.084 34.7109 77.084 34.4141C77.084 34.2266 77.1152 33.8438 77.1777 33.2656C77.2402 32.6719 77.3105 31.9531 77.3887 31.1094C77.4824 30.25 77.5762 29.2969 77.6699 28.25C77.7793 27.1875 77.873 26.0938 77.9512 24.9688C78.0449 23.8438 78.123 22.7188 78.1855 21.5938C78.248 20.4688 78.2793 19.3984 78.2793 18.3828C78.2793 17.8828 78.2715 17.4219 78.2558 17C78.2402 16.5625 78.2324 16.1484 78.2324 15.7578C78.2324 15.6641 78.2793 15.6172 78.373 15.6172C78.5605 15.6172 78.7012 15.6562 78.7949 15.7344C78.9043 15.7969 78.9824 15.8672 79.0293 15.9453C79.0762 16.0234 79.0996 16.1016 79.0996 16.1797C79.1152 16.2422 79.1308 16.2734 79.1465 16.2734C79.1933 16.2734 79.248 16.25 79.3105 16.2031C79.373 16.1406 79.4355 16.0781 79.498 16.0156C79.5762 15.9531 79.6465 15.8984 79.709 15.8516C79.7715 15.7891 79.8262 15.7578 79.873 15.7578H80.1074C80.3418 15.7578 80.5058 15.7266 80.5996 15.6641C80.6933 15.5859 80.7558 15.5078 80.7871 15.4297C80.834 15.3359 80.8652 15.2578 80.8808 15.1953C80.8965 15.1172 80.9433 15.0781 81.0215 15.0781C81.0683 15.0781 81.1308 15.1172 81.209 15.1953C81.3027 15.2578 81.3887 15.375 81.4668 15.5469C81.5605 15.7031 81.6387 15.9141 81.7012 16.1797C81.7637 16.4453 81.7949 16.7656 81.7949 17.1406C81.7949 17.6406 81.7715 18.2734 81.7246 19.0391C81.6933 19.8047 81.6465 20.625 81.584 21.5C81.5371 22.3594 81.4902 23.2344 81.4433 24.125C81.3965 25 81.3652 25.7969 81.3496 26.5156C81.5215 25.8438 81.7246 25.1016 81.959 24.2891C82.209 23.4609 82.4902 22.625 82.8027 21.7812C83.1308 20.9375 83.4824 20.1172 83.8574 19.3203C84.2324 18.5078 84.6387 17.7891 85.0762 17.1641C85.5137 16.5391 85.9746 16.0391 86.459 15.6641C86.9433 15.2734 87.4512 15.0781 87.9824 15.0781C88.8262 15.0781 89.5137 15.2344 90.0449 15.5469C90.5918 15.8594 91.0215 16.2891 91.334 16.8359C91.6465 17.3828 91.8574 18.0234 91.9668 18.7578C92.0918 19.4922 92.1543 20.2812 92.1543 21.125C92.1543 21.8438 92.123 22.6016 92.0605 23.3984C91.998 24.1797 91.9277 24.9688 91.8496 25.7656C91.7871 26.5469 91.7246 27.3203 91.6621 28.0859C91.6152 28.8516 91.5918 29.5703 91.5918 30.2422C91.5918 31.0703 91.6387 31.8203 91.7324 32.4922C91.8262 33.1484 91.873 33.6484 91.873 33.9922ZM116.133 5.375C116.117 5.70312 116.071 6.19531 115.992 6.85156C115.914 7.50781 115.813 8.28906 115.688 9.19531C115.578 10.0859 115.461 11.0859 115.336 12.1953C115.211 13.2891 115.094 14.4453 114.985 15.6641C114.875 16.8672 114.782 18.1094 114.703 19.3906C114.641 20.6562 114.61 21.9219 114.61 23.1875C114.61 23.8438 114.625 24.5859 114.657 25.4141C114.688 26.2422 114.719 27.0859 114.75 27.9453C114.797 28.7891 114.844 29.625 114.891 30.4531C114.938 31.2656 114.977 32 115.008 32.6562C115.039 33.3125 115.055 33.8516 115.055 34.2734C115.055 34.6953 115.032 34.9375 114.985 35C114.907 35.0938 114.805 35.1328 114.68 35.1172C114.555 35.1172 114.43 35.1016 114.305 35.0703C114.18 35.0547 114.055 35.0391 113.93 35.0234C113.821 35.0078 113.742 35.0312 113.696 35.0938C113.664 35.1719 113.61 35.25 113.532 35.3281C113.453 35.4219 113.36 35.5 113.25 35.5625C113.157 35.6406 113.039 35.6953 112.899 35.7266C112.758 35.7578 112.61 35.7422 112.453 35.6797C112.188 35.5234 111.938 35.2969 111.703 35C111.485 34.7188 111.352 34.3516 111.305 33.8984C111.258 33.5859 111.219 33.2188 111.188 32.7969C111.172 32.375 111.157 31.9219 111.141 31.4375C111.125 30.9375 111.11 30.4297 111.094 29.9141C111.094 29.3828 111.094 28.8672 111.094 28.3672C110.719 29.3984 110.274 30.3281 109.758 31.1562C109.242 31.9688 108.68 32.6719 108.071 33.2656C107.477 33.8594 106.852 34.3438 106.196 34.7188C105.539 35.0781 104.891 35.3281 104.25 35.4688C103.407 35.6406 102.524 35.625 101.602 35.4219C100.696 35.2344 99.844 34.9141 99.0472 34.4609C98.2659 33.9922 97.5862 33.4219 97.0081 32.75C96.43 32.0625 96.055 31.3047 95.8831 30.4766C95.7581 29.8984 95.6722 29.3359 95.6253 28.7891C95.5784 28.2422 95.555 27.7188 95.555 27.2188C95.555 25.8906 95.719 24.6875 96.0472 23.6094C96.3753 22.5312 96.7972 21.5703 97.3128 20.7266C97.8284 19.8672 98.3909 19.125 99.0003 18.5C99.6253 17.875 100.227 17.3516 100.805 16.9297C101.383 16.5078 101.899 16.1875 102.352 15.9688C102.805 15.75 103.133 15.6172 103.336 15.5703C103.711 15.4609 104.086 15.3906 104.461 15.3594C104.836 15.3281 105.196 15.3125 105.539 15.3125C106.227 15.3125 106.867 15.3828 107.461 15.5234C108.055 15.6641 108.594 15.8438 109.078 16.0625C109.578 16.2812 110.016 16.5234 110.391 16.7891C110.782 17.0547 111.117 17.3047 111.399 17.5391C111.446 16.6016 111.492 15.6641 111.539 14.7266C111.586 13.7891 111.633 12.8984 111.68 12.0547C111.742 11.2109 111.797 10.4297 111.844 9.71094C111.907 8.99219 111.977 8.38281 112.055 7.88281C112.18 7.03906 112.297 6.3125 112.407 5.70312C112.532 5.09375 112.649 4.57031 112.758 4.13281C112.883 3.67969 113 3.29687 113.11 2.98438C113.235 2.67188 113.352 2.39844 113.461 2.16406C113.524 2.10156 113.625 2.07031 113.766 2.07031C113.922 2.05469 114.094 2.07031 114.282 2.11719C114.469 2.14844 114.664 2.20313 114.867 2.28125C115.071 2.35937 115.258 2.45312 115.43 2.5625C115.586 2.67188 115.719 2.78906 115.828 2.91406C115.938 3.03906 116.024 3.20312 116.086 3.40625C116.149 3.60938 116.18 3.86719 116.18 4.17969C116.196 4.49219 116.18 4.89062 116.133 5.375ZM111.047 20.8438C111.047 20.6406 111.055 20.4219 111.071 20.1875C111.086 19.9375 111.11 19.7031 111.141 19.4844C111.016 19.5938 110.899 19.6953 110.789 19.7891C110.696 19.8672 110.625 19.9453 110.578 20.0234C110.235 20.4141 110 20.6328 109.875 20.6797C109.75 20.7109 109.617 20.6562 109.477 20.5156C108.414 19.4531 107.391 18.7344 106.407 18.3594C105.438 17.9688 104.555 17.7734 103.758 17.7734C103.227 17.7734 102.758 17.8359 102.352 17.9609C101.961 18.0703 101.649 18.1953 101.414 18.3359C100.992 18.5859 100.61 18.9688 100.266 19.4844C99.9222 19.9844 99.6253 20.5625 99.3753 21.2188C99.1409 21.875 98.9534 22.5859 98.8128 23.3516C98.6878 24.1016 98.6253 24.8516 98.6253 25.6016C98.6253 26.3984 98.7034 27.1641 98.8597 27.8984C99.0315 28.6328 99.2972 29.2812 99.6565 29.8438C100.016 30.4062 100.485 30.8516 101.063 31.1797C101.641 31.4922 102.344 31.6328 103.172 31.6016C104.078 31.5547 104.899 31.3359 105.633 30.9453C106.383 30.5547 107.047 30.0547 107.625 29.4453C108.219 28.8359 108.727 28.1484 109.149 27.3828C109.571 26.6172 109.922 25.8438 110.203 25.0625C110.485 24.2812 110.696 23.5234 110.836 22.7891C110.977 22.0547 111.047 21.4062 111.047 20.8438ZM138.354 15.8984C138.307 15.9766 138.143 16.2422 137.862 16.6953C137.596 17.1328 137.253 17.6953 136.831 18.3828C136.409 19.0547 135.924 19.8281 135.378 20.7031C134.846 21.5625 134.292 22.4609 133.713 23.3984C133.151 24.3203 132.588 25.2422 132.026 26.1641C131.463 27.0859 130.932 27.9531 130.432 28.7656C129.948 29.5625 129.526 30.2734 129.167 30.8984C128.807 31.5234 128.542 31.9922 128.37 32.3047C128.198 32.6172 127.956 33.1016 127.643 33.7578C127.331 34.4141 126.971 35.1641 126.565 36.0078C126.159 36.8672 125.721 37.7891 125.253 38.7734C124.799 39.7578 124.338 40.7422 123.87 41.7266C123.417 42.7266 122.971 43.6875 122.534 44.6094C122.112 45.5469 121.729 46.3828 121.385 47.1172C121.057 47.8516 120.784 48.4531 120.565 48.9219C120.346 49.4062 120.221 49.6953 120.19 49.7891C120.049 50.1484 119.917 50.3672 119.792 50.4453C119.682 50.5391 119.518 50.6094 119.299 50.6562C119.19 50.6719 119.104 50.6406 119.042 50.5625C118.979 50.4844 118.924 50.3906 118.878 50.2812C118.831 50.1719 118.784 50.0703 118.737 49.9766C118.69 49.8984 118.635 49.8516 118.573 49.8359C118.37 49.8047 118.253 49.7578 118.221 49.6953C118.206 49.6484 118.159 49.5469 118.081 49.3906C118.034 49.3281 117.987 49.2891 117.94 49.2734C117.893 49.2734 117.846 49.2734 117.799 49.2734C117.753 49.2734 117.721 49.2656 117.706 49.25C117.674 49.2344 117.659 49.1875 117.659 49.1094C117.69 48.8438 117.713 48.5781 117.729 48.3125C117.76 48.0469 117.799 47.8047 117.846 47.5859C117.893 47.4141 118.049 47.0547 118.315 46.5078C118.596 45.9609 118.94 45.2891 119.346 44.4922C119.753 43.7109 120.206 42.8359 120.706 41.8672C121.221 40.9141 121.737 39.9375 122.253 38.9375C122.784 37.9531 123.299 36.9766 123.799 36.0078C124.315 35.0391 124.776 34.1562 125.182 33.3594C124.979 32.9219 124.706 32.3594 124.362 31.6719C124.018 30.9688 123.643 30.1953 123.237 29.3516C122.831 28.4922 122.393 27.5859 121.924 26.6328C121.471 25.6797 121.026 24.7344 120.588 23.7969C120.151 22.8594 119.729 21.9531 119.323 21.0781C118.917 20.2031 118.557 19.4219 118.245 18.7344C117.948 18.0312 117.713 17.4531 117.542 17C117.37 16.5312 117.284 16.2422 117.284 16.1328C117.299 15.9453 117.338 15.8203 117.401 15.7578C117.463 15.6797 117.549 15.6406 117.659 15.6406C117.753 15.6406 117.854 15.6641 117.963 15.7109C118.088 15.7578 118.213 15.8047 118.338 15.8516C118.526 15.9297 118.706 16.0078 118.878 16.0859C119.049 16.1484 119.174 16.1172 119.253 15.9922C119.299 15.8672 119.432 15.8047 119.651 15.8047C119.87 15.7891 120.049 15.8203 120.19 15.8984C120.237 15.9453 120.276 15.9609 120.307 15.9453C120.354 15.9297 120.393 15.8984 120.424 15.8516C120.471 15.8047 120.518 15.7578 120.565 15.7109C120.628 15.6484 120.698 15.6016 120.776 15.5703C120.948 15.5391 121.104 15.5703 121.245 15.6641C121.385 15.7578 121.518 15.9609 121.643 16.2734C121.721 16.5078 121.878 16.9141 122.112 17.4922C122.362 18.0703 122.651 18.7422 122.979 19.5078C123.323 20.2734 123.698 21.1016 124.104 21.9922C124.51 22.8672 124.917 23.7344 125.323 24.5938C125.729 25.4375 126.112 26.2344 126.471 26.9844C126.846 27.7344 127.174 28.3594 127.456 28.8594C127.878 28.0781 128.331 27.25 128.815 26.375C129.315 25.4844 129.815 24.6016 130.315 23.7266C130.831 22.8359 131.338 21.9688 131.838 21.125C132.338 20.2812 132.807 19.5 133.245 18.7812C133.698 18.0625 134.096 17.4375 134.44 16.9062C134.784 16.3594 135.065 15.9453 135.284 15.6641C135.409 15.5078 135.471 15.4062 135.471 15.3594C135.471 15.3125 135.534 15.2656 135.659 15.2188C135.753 15.1875 135.831 15.1562 135.893 15.125C135.971 15.0938 136.088 15.0938 136.245 15.125C136.385 15.1562 136.495 15.1719 136.573 15.1719C136.651 15.1719 136.713 15.2188 136.76 15.3125C136.792 15.3594 136.838 15.375 136.901 15.3594C136.963 15.3438 137.034 15.3203 137.112 15.2891C137.206 15.2422 137.299 15.2031 137.393 15.1719C137.487 15.125 137.581 15.1094 137.674 15.125C137.784 15.1406 137.893 15.1641 138.003 15.1953C138.112 15.2109 138.206 15.25 138.284 15.3125C138.378 15.375 138.432 15.4531 138.448 15.5469C138.463 15.6406 138.432 15.7578 138.354 15.8984Z" fill="url(#paint0_linear_13_44)"/>
<defs>
<linearGradient id="paint0_linear_13_44" x1="73.3094" y1="0" x2="73.3094" y2="40" gradientUnits="userSpaceOnUse">
<stop stop-color="#4B96AC"/>
<stop offset="0.0579538" stop-color="#374D77"/>
<stop offset="0.52543" stop-color="#CCA873"/>
<stop offset="0.730663" stop-color="#9F453D"/>
</linearGradient>
</defs>
</svg>
